<svg version="1.0" xmlns="http://www.w3.org/2000/svg"
 width="163.000000pt" height="400.000000pt" viewBox="0 0 163.000000 400.000000"
 preserveAspectRatio="xMidYMid meet">
<g transform="translate(0.000000,400.000000) scale(0.100000,-0.100000)"
fill="#000000" stroke="none">
<path d="M750 3906 l0 -94 -30 -7 -30 -7 0 -79 c0 -78 0 -79 -25 -79 -24 0
-25 -3 -25 -54 0 -52 -1 -55 -27 -58 -26 -3 -28 -6 -31 -56 -3 -46 -6 -54 -28
-62 -22 -9 -24 -14 -24 -85 l0 -75 -30 0 -30 0 0 -165 0 -165 -25 0 c-18 0
-26 -7 -31 -24 -3 -15 -14 -26 -27 -28 -16 -2 -23 -11 -25 -30 -3 -22 -9 -28
-27 -28 -18 0 -26 -7 -31 -24 -3 -15 -15 -27 -30 -30 -17 -5 -24 -13 -24 -31
0 -21 -5 -25 -30 -25 -25 0 -30 4 -30 25 0 29 -38 43 -79 29 l-26 -9 -3 -163
-2 -162 -40 0 -40 0 0 -910 0 -910 40 0 40 0 0 -300 0 -300 140 0 140 0 0 300
0 300 443 0 442 0 0 -297 0 -298 163 -3 162 -2 0 300 0 300 30 0 30 0 0 910 0
910 -30 0 -30 0 0 140 0 140 -24 0 c-19 0 -25 6 -28 28 -3 25 -6 27 -53 27
-47 0 -50 -2 -53 -27 -3 -24 -8 -28 -33 -28 -26 0 -29 3 -29 30 0 25 -4 30
-25 30 -21 0 -25 5 -25 28 0 51 -11 72 -36 72 -20 0 -24 5 -24 30 0 25 -4 30
-25 30 l-25 0 0 110 0 110 -30 0 -30 0 0 85 c0 84 0 85 -25 85 -23 0 -25 3
-26 53 -1 74 -11 101 -37 105 -20 3 -22 9 -22 58 0 51 -1 54 -25 54 -24 0 -25
2 -25 69 0 85 -6 101 -36 101 l-24 0 0 125 0 125 -80 0 -80 0 0 -94z m270
-901 l0 -25 -195 0 -195 0 0 25 0 25 195 0 195 0 0 -25z m-110 -250 l0 -55
-80 0 -80 0 0 33 c0 17 -3 42 -6 55 -6 22 -5 22 80 22 l86 0 0 -55z m-220
-160 l0 -55 -165 0 -165 0 0 25 c0 20 5 25 25 25 21 0 25 5 25 30 l0 30 140 0
140 0 0 -55z m500 25 c0 -25 4 -30 25 -30 20 0 25 -5 25 -25 l0 -25 -138 0
-138 0 4 42 c3 32 0 45 -14 55 -15 11 1 13 109 13 l127 0 0 -30z m220 -525 l0
-55 -580 0 -580 0 0 55 0 55 580 0 580 0 0 -55z m-880 -250 c0 -21 -5 -25 -30
-25 -27 0 -30 -3 -30 -30 0 -25 -4 -30 -25 -30 -18 0 -26 -7 -31 -25 -3 -14
-10 -25 -14 -25 -5 0 -15 -3 -24 -6 -14 -5 -16 6 -16 80 l0 86 85 0 c84 0 85
0 85 -25z m710 -55 c0 -79 0 -80 -25 -80 -20 0 -25 5 -25 25 0 21 -5 25 -30
25 -27 0 -30 3 -30 30 0 25 -4 30 -25 30 -20 0 -25 5 -25 25 0 25 1 25 80 25
l80 0 0 -80z m-490 -250 l0 -220 29 0 c23 0 30 -5 33 -22 2 -19 12 -25 51 -32
41 -7 47 -11 47 -32 0 -20 5 -24 30 -24 27 0 30 -3 30 -30 0 -30 -1 -30 -55
-30 -52 0 -55 -1 -55 -25 0 -21 -5 -25 -30 -25 -25 0 -30 4 -30 25 0 25 -1 25
-79 25 l-79 0 -7 30 c-5 23 -12 30 -31 30 -19 0 -24 5 -24 25 0 21 -5 25 -30
25 l-30 0 0 170 0 170 30 0 c25 0 30 4 30 24 0 18 6 25 23 28 16 2 23 11 25
31 3 23 8 27 33 27 24 0 29 4 29 25 0 21 5 25 30 25 l30 0 0 -220z m272 143
c2 -22 9 -29 31 -31 26 -3 27 -6 27 -58 0 -51 1 -54 25 -54 l25 0 0 -110 0
-110 -55 0 c-52 0 -55 1 -55 25 0 20 -5 25 -25 25 -21 0 -25 5 -25 30 0 27 -3
30 -30 30 l-30 0 0 140 0 140 54 0 c52 0 55 -1 58 -27z m-612 -497 c0 -58 12
-86 36 -86 19 0 24 -5 24 -25 0 -20 6 -27 30 -31 23 -5 30 -12 30 -30 0 -23
-2 -24 -85 -24 l-85 0 0 110 0 110 25 0 c20 0 25 -5 25 -24z m830 -111 l0 -85
-84 0 c-83 0 -83 0 -79 24 3 16 13 26 27 28 15 2 22 11 24 31 3 23 8 27 33 27
24 0 29 4 29 24 0 18 7 26 23 29 12 2 23 5 25 6 1 0 2 -37 2 -84z"/>
<path d="M488 433 c-16 -4 -18 -23 -18 -219 l0 -214 80 0 80 0 0 190 0 190
-25 0 c-20 0 -25 5 -25 24 0 31 -39 43 -92 29z"/>
<path d="M1048 433 l-28 -4 0 -215 0 -214 85 0 85 0 -2 188 -3 187 -27 3 c-22
3 -28 9 -28 28 0 14 -6 24 -14 24 -8 0 -20 2 -28 3 -7 2 -25 2 -40 0z"/>
<path d="M750 105 l0 -105 80 0 80 0 0 105 0 105 -80 0 -80 0 0 -105z"/>
</g>
</svg>
